<?xml version="1.0"?><svg version="1.2" baseProfile="tiny-ps" viewBox="0 0 300 300" xmlns="http://www.w3.org/2000/svg" xmlns:xlink="http://www.w3.org/1999/xlink"><title>khandokerabdullah</title><g><g fill="#fff" transform="matrix(.1 0 0 -.1 0 300)"><path d="M203 2982c-67-24-118-63-154-120l-28-45-11-51-11-51 3-1245L5 225l28-57 28-57 36-32c21-17 57-41 82-53l46-21h2550l57 28 57 28 32 36c17 21 41 57 53 82l21 46v2550l-21 46c-12 25-36 61-53 82l-32 36-57 28-57 28-1260 2-1260 3-52-18z"/></g><g fill="#d7d7d7" transform="matrix(.1 0 0 -.1 0 300)"><path d="M205 2982c-65-22-109-55-146-105l-29-40-15-50-15-51V1461l60 32c33 17 90 38 127 47l66 16 42 97 43 97 66 99 66 99 62 57 62 56 65 32 64 31h88l87-1 59-29 58-29 32-48c18-27 37-65 43-85l10-37v-181l-21-80c-11-43-49-159-85-256l-64-177v-92l10-20 11-19h41l47 34c25 19 72 61 105 94l58 60 14 86 14 86 35 102c20 57 38 110 41 119l6 16-33 13c-17 8-45 24-60 38l-29 24v38h24c13 0 43-7 66-15s50-15 59-15h16l43 70c24 39 69 98 100 132l57 61 56 37 56 36 55 13 55 13 54-11 54-12 38-25 39-25 19-42c22-49 23-72 8-132l-11-44-35-40-35-41-71-34-72-35-90-15c-49-9-107-18-128-21l-37-6-16-37c-8-20-24-73-35-117l-19-80-6-115-6-115 12-44 12-44 28-29 28-28h82l20 20c27 27 40 63 40 110 0 52-14 86-56 137l-36 43 22 45 21 44 36 32 36 31 29-6 30-6 19-22c20-24 52-116 63-183 4-22 17-60 29-85l22-45 34-3 34-3 34 33c44 42 52 58 70 131l14 60 29 56c17 31 48 77 70 102l40 47 56 37 57 38 61 19 61 20 65-6c36-3 75-7 88-8l23-3 29 110c32 121 67 217 100 270 24 38 66 75 86 75 21 0 74-50 94-91l20-38v-79l-21-49c-11-26-38-76-60-109l-40-62-18-78c-11-44-27-128-36-189l-18-110-1-102-1-102 17-17 16-17 26 7 25 6 91 86 90 87-2 761-3 761-21 46c-12 25-36 61-53 82l-32 36-57 28-57 28-1260 2-1260 3-50-18zm1540-1036-30-13-60-65c-33-35-71-84-84-108l-24-43 41 7c138 22 242 99 242 180v25l-22 15c-26 19-25 19-63 2zm-1061-47-31-9-44-39-44-39-32-53c-33-55-80-175-72-183 2-2 87-5 189-7l185-4 18 55c10 30 20 82 24 116l6 61-12 36-12 37-26 20-26 20-46-1c-25 0-60-5-77-10zm1838-348c-61-21-151-80-188-124-14-16-37-53-51-81l-26-51-5-77c-5-89 1-121 28-148l20-20h84l42 21 42 20 27 35c14 18 32 49 39 67l13 32 7 95c4 52 11 123 17 157s9 68 7 77l-3 15-53-18zM424 1409c-11-19-34-232-34-322v-88l-15-35-14-34-63-30-63-30h-54l-20 21-20 22-7 45-7 44 7 83 7 83 28 111c15 61 26 112 25 114-4 4-138-10-172-18l-23-6 3-572 3-572 21-46c12-25 36-61 53-82l32-36 57-28 57-28h2550l57 28 57 28 32 36c17 21 41 57 53 82l21 46 3 425 3 425-53-51c-85-83-186-134-266-134h-34l-33 33-33 33-7 37c-4 20-10 37-14 37s-22-18-39-39l-32-40-67-33-68-33h-170l-45 25-44 25-32 42c-18 23-34 47-36 53l-3 11-30-15-30-16h-96l-37 15-37 16-3-10c-2-6-13-25-26-43l-22-33-53-32-53-32-55-7c-30-3-81-4-112-1l-58 5-56 26-56 27-35 41c-20 23-40 55-46 73l-11 32-64-63-63-64-69-32-68-32-58-4-58-4-38 16-38 17-19 32-19 32 1 95v95l32 108c18 59 32 109 32 112 0 8-65 14-207 19l-143 5-6-10z"/></g><g fill="#a3a3a3" transform="matrix(.1 0 0 -.1 0 300)"><path d="M205 2982c-65-22-109-55-146-105l-29-40-15-50-15-51V1459l29 20c36 26 69 39 151 61l65 17 65 130c84 167 125 226 214 311l73 69 59 29 59 29h180l39-14 39-13 39-36c22-20 48-53 59-73l19-38 12-69 12-69-13-88-13-87-53-152c-29-83-63-178-76-211l-23-60v-62l-1-62 12-12 12-12 24 7 25 6 89 78 88 78 11 39c6 22 21 83 32 136s34 130 50 170l30 74-15 10c-9 6-34 24-57 40l-41 31-3 22-3 22h27c15 0 51-8 80-17 30-9 55-15 57-12 2 2 25 40 52 84l49 80 66 65 66 65 58 28 58 29 52 5 52 5 55-15 54-16 32-33c39-40 53-76 53-131v-42l-19-40-18-41-47-41-46-41-70-26c-64-23-115-35-244-54l-49-7-18-52c-10-29-25-90-35-135l-17-83-1-110-1-110 14-38 13-39 32-19 31-19h63l25 30 25 29 7 39 6 40-6 35-7 34-39 49-40 48 6 25c4 14 21 46 39 71l32 45 27 9 27 10 27-10 28-9 22-40 22-40 22-94 23-94 21-31 21-31 28-3 28-4 42 44 42 44 13 60c7 32 27 88 44 124l30 65 68 68 67 67 69 33 68 32h85c47 0 97-3 111-7l27-8 26 108c33 129 68 219 112 289l33 52 26 7 27 7 24-13 24-13 30-47 30-47v-93l-19-50c-10-27-37-76-60-110l-41-60-19-87c-33-148-56-344-52-449l1-40 14-19 14-20 34 17c19 8 71 51 116 93l82 78-2 761-3 761-21 46c-12 25-36 61-53 82l-32 36-57 28-57 28-1260 2-1260 3-50-18zm1508-1061c-62-45-165-182-149-198 3-3 36 4 73 15l68 21 46 29 45 29 18 37 17 37-9 27-9 27-29 3-30 3-41-30zm-1025-25c-47-17-94-57-134-112-33-45-78-140-89-186l-7-28h381l22 96 22 96-12 54-12 54-26 20-26 20h-41c-22-1-58-7-78-14zm1794-366-63-29-54-52-55-52-27-56-28-56v-187l28-24 28-24h64l40 19 40 18 31 35 32 36 15 43 15 44 11 130c6 72 14 142 17 158l6 27h-18c-11 0-47-13-82-30zM416 1367c-4-25-13-127-20-227l-13-180-22-24c-13-14-45-34-73-46l-49-21-37 3-37 3-18 35-18 35 5 115 5 115 25 103c15 57 26 105 26 108 0 7-35 5-115-7l-76-12 3-571 3-571 21-46c12-25 36-61 53-82l32-36 57-28 57-28h2550l57 28 57 28 32 36c17 21 41 57 53 82l21 46 3 422 3 422-55-54-55-53-66-33-66-32-55-5-54-4-23 15-23 15-16 38c-9 22-19 47-22 58l-6 18-41-45-40-46-54-27-55-26-64-5-64-6-52 13-53 13-46 46c-25 25-51 54-56 64l-10 19-52-17-51-17-63 17-64 16-4-13c-2-7-25-34-50-60l-46-46-59-17-59-17-86 4-86 5-49 23-50 24-37 39-38 38-11 35-12 36-62-62-61-61-64-32-65-32-68-3-68-4-30 12-31 13-22 31-22 31 1 110 1 110 31 100c17 55 29 102 26 104-2 2-82 6-178 9l-173 5-7-46z"/></g><g fill="#6d6d6d" transform="matrix(.1 0 0 -.1 0 300)"><path d="M205 2982c-65-22-109-55-146-105l-29-40-15-50-15-51V1468l8 4c72 37 128 60 176 72 32 9 61 18 63 20 3 2 24 47 47 98 23 52 68 134 99 181l57 87 63 63 64 62 64 35 64 35h210l54-30 55-30 28-45c16-25 36-70 45-100l16-54-6-91-6-90-20-71c-11-40-48-146-82-235l-61-164-1-58v-58l16-16 15-16 44 26c24 14 75 58 114 99l72 73 7 50c10 75 43 201 71 269 13 33 24 64 24 70s-23 23-50 38l-50 28-6 26-7 25 10 10 9 9 59-16c33-9 66-17 74-18l14-1 41 70 41 69 75 77 75 76 60 29 60 29h160l45-27 45-26 24-42 23-42-4-64-4-64-30-42-30-43-54-33c-71-42-161-70-277-84l-93-12-20-61c-11-33-27-95-35-139l-15-78v-218l16-39 16-39 33-16c18-9 43-16 54-16h22l24 24 24 24 11 41 11 41-7 35-6 35-32 42c-17 22-35 46-40 53l-9 12 6 25c4 13 20 43 37 66l30 41 30 16 31 16 26-13 27-13 22-33 23-33 21-92c12-50 28-106 35-124l13-31 22-12 22-12 23 6 23 6 32 40 31 39 20 73c11 40 34 99 51 130l30 57 47 47c25 26 72 64 104 85l57 37 52 12 51 13 87-6 87-6 32 122 32 122 39 82 40 81 26 21 27 21h21c32 0 62-25 93-77l27-46-1-47-1-47-21-49c-12-27-40-76-61-110l-40-60-21-100c-29-137-49-295-49-385v-77l19-23 18-22 34 21c19 11 69 56 112 99l77 79-2 754-3 755-21 46c-12 25-36 61-53 82l-32 36-57 28-57 28-1260 2-1260 3-50-18zm1514-1060c-25-16-59-47-75-68-47-60-88-124-82-129 3-3 42 6 87 20l82 26 44 43 45 43v69l-12 12c-19 19-40 15-89-16zm-1009-21c-97-30-172-114-225-255-14-36-25-69-25-71 0-3 85-5 188-5h189l16 69 17 69v121l-12 26-12 26-27 15c-30 15-69 17-109 5zm1799-360c-101-39-184-116-226-208l-25-53-4-73-5-72 18-35 18-35 33-9 32-9 41 12 41 12 42 42 41 42 18 54 17 53v48c0 46 15 180 25 228l5 22h-12c-7-1-34-9-59-19zM416 1358c-4-29-11-126-16-215l-9-162-15-30-16-29-56-27-57-27-34-1-33-1-21 20-20 20-8 53-8 53 8 86c5 48 20 132 33 187 14 55 23 101 21 103-1 1-44-2-94-9l-92-12 3-571 3-571 21-46c12-25 36-61 53-82l32-36 57-28 57-28h2550l57 28 57 28 32 36c17 21 41 57 53 82l21 46 3 419 3 419-60-56-60-55-53-26c-60-29-135-46-173-38l-25 4-25 30c-13 16-29 46-35 67l-10 37-59-57-59-58-53-15-53-16h-142l-53 26-53 27-28 39c-16 22-30 43-32 48l-3 9-47-16-46-17-49 11c-26 6-57 14-68 17l-20 7-20-36-19-37-41-28c-22-15-56-32-77-39l-36-12h-169l-58 22-58 22-42 42-43 42-12 35-13 35-56-57-56-57-64-32-64-33-51-8-51-8-47 10-48 10-24 29-25 29-11 54-11 55 15 88c9 48 26 122 39 164l24 76-105 7c-58 3-138 6-177 6h-72l-7-52z"/></g><g fill="#373737" transform="matrix(.1 0 0 -.1 0 300)"><path d="M205 2982c-65-22-109-55-146-105l-29-40-15-50-15-51V1472l58 29c33 16 88 36 123 45l65 16 49 106c27 59 76 146 107 194l58 86 64 59 64 59 59 29 58 30 82 3 81 4 54-16 53-15 37-31 37-30 28-58 28-57v-230l-19-70c-10-38-47-147-82-242l-64-172v-122l15-5c8-4 26-3 40 0l24 6 88 84 89 84 11 81 12 81 35 103c19 56 37 109 41 118l6 16-51 31-50 31-9 23c-5 13-6 29-3 37l5 13 31-6c17-3 52-12 78-20l47-15 27 47c44 76 97 143 158 200l56 53 65 31 66 30 72-4 72-3 40-21 40-21 30-42 30-42-1-57-1-57-21-42-21-41-38-31c-73-61-195-103-343-119l-65-7-23-64c-12-35-29-102-37-149l-15-85v-182l10-36 10-35 22-21c13-11 35-23 50-27l27-6 24 11 25 11 17 32 18 32-5 62-4 61-42 50-42 50 21 45 21 45 39 36 39 35h42l33-33 33-33 15-54c9-30 26-88 37-128l21-73 20-20 20-20 22 6c12 4 40 26 62 49l40 43 13 60 12 60 32 64 31 63 61 60 61 61 61 32 60 32 59 9c33 5 64 8 70 7 5-2 35-6 66-9l56-6 13 58c34 155 98 312 148 365l26 27h64l32-37c60-68 70-114 45-200l-15-50-49-76-49-75-21-99c-11-54-28-154-37-223l-16-125 4-62 4-63 11-11 12-12 25 7 25 6 91 86 90 87-2 756-3 756-21 46c-12 25-36 61-53 82l-32 36-57 28-57 28-1260 2-1260 3-50-18zm1540-1044c-36-19-106-92-147-152l-41-59 44 7c24 4 70 19 102 33l58 26 29 34 30 34v65l-12 12c-15 15-37 15-63 0zm-1036-42c-55-15-98-44-138-95-36-45-88-151-97-199l-7-32 184 2 184 3 18 70 18 70-3 68-4 67-24 24-25 24-30 5-30 6-46-13zm1831-345c-86-27-184-99-229-170l-30-47-17-64-16-64 5-47c3-26 12-57 19-68l13-21 30-10 30-10 34 10c19 5 51 21 72 34l37 25 26 53 25 53 11 125c6 68 15 144 19 167 5 24 6 43 2 42-3 0-17-4-31-8zM426 1398c-10-30-18-122-25-269l-7-157-17-26-17-26-48-23c-26-13-60-27-76-31l-29-7-27 11-27 11-11 24c-6 13-14 46-18 73l-6 48 16 110c9 60 25 141 35 179 11 38 19 70 18 71s-44-3-95-9l-93-11 3-570 3-571 21-46c12-25 36-61 53-82l32-36 57-28 57-28h2550l57 28 57 28 32 36c17 21 41 57 53 82l21 46 3 419 3 420-60-57-60-58-66-31-66-30-54-2-53-1-26 24-25 24-17 43-16 43-43-44c-24-24-61-53-83-64l-40-20-61-10-61-10-57 9-56 9-38 25c-39 26-89 85-89 104 0 15-9 15-40-3l-25-14h-45c-25 0-61 6-81 13l-36 13-34-46-34-45-58-30-57-29-93-1-92-1-54 20-54 20-42 37-42 37-18 38c-10 21-18 39-19 40-1 2-29-24-62-56l-60-58-65-31c-35-16-83-33-107-37l-42-7-41 7-41 7-33 29-33 29-12 51-13 51 7 57c4 31 20 107 37 170 16 62 29 115 27 116s-78 6-170 10l-168 7-4-14z"/></g><g fill="#020202" transform="matrix(.1 0 0 -.1 0 300)"><path d="M205 2982c-65-22-109-55-146-105l-29-40-15-50-15-51V1473l63 32 62 31 60 14 60 13 38 87c21 48 61 125 89 171l51 84 82 82 82 83 69 32 69 33 85-1h85l53-23 53-24 40-45 39-45 17-56 17-56v-150l-18-79c-10-43-34-121-53-175-20-53-51-139-69-191l-34-95v-45c0-25 4-51 9-59l9-14 26 7 26 6 67 59c38 32 78 70 91 83l23 26 9 63c11 75 53 225 81 289l20 45-15 10c-8 5-28 17-44 27-17 9-38 28-47 42l-17 26 6 15 5 15h22c12 0 47-8 77-17l54-17 17 21c9 12 32 47 51 79l35 58 66 67 65 66 67 33 67 33h138l48-24 48-24 28-35 28-35 6-45 6-45-12-44-11-43-42-45-41-45-46-23c-65-33-168-63-242-70-34-3-73-8-85-11l-22-4-22-73c-29-98-49-226-49-317v-75l11-39 11-39 24-24 24-24 42 3 42 3 23 34 23 34v105l-46 62-47 61 19 40c10 22 35 58 56 80l38 39h57l25-20 26-20 15-37c8-21 25-78 37-128l23-90 19-27 19-28h57l36 41 35 42 11 52c6 29 26 84 44 122l33 69 55 59 56 60 61 36 62 37 65 12 64 12 58-8c31-4 61-8 66-9h10l21 85c54 213 113 334 176 360l28 12 33-19 32-19 29-54 29-55-5-51-5-51-27-54c-15-30-38-68-51-86-13-17-29-44-35-60-19-50-49-215-65-353l-15-135 7-48 6-48 15-6 14-6 24 13c13 7 62 48 109 92l86 80-2 757-3 756-21 46c-12 25-36 61-53 82l-32 36-57 28-57 28-1260 2-1260 3-50-18zm1540-1048c-16-8-47-32-68-52-44-43-112-141-103-149 8-8 135 35 175 59 38 24 71 72 71 105v22l-16 15c-19 20-22 20-59 0zm-1070-53-40-18-42-44-43-43-34-71c-19-39-37-82-41-96l-6-26 107-6c59-4 140-7 180-7h73l15 50c8 28 18 76 22 108l6 57-11 42-12 42-22 16-21 15h-91l-40-19zm1833-346c-54-20-120-67-167-121l-40-46-21-56-21-56-1-69v-69l19-26 20-27 28-3c16-2 42-1 60 2l32 6 40 35 40 34 18 38 18 37 13 131c8 71 16 147 20 168l6 37-14-1c-7 0-30-7-50-14zM426 1374c-11-41-25-220-26-310v-81l-23-34-22-34-55-27-55-27h-33l-33-1-24 24-23 23-8 49-7 49 12 105c6 58 20 139 31 180s20 79 20 84v8l-72-7c-40-3-81-9-91-11l-18-6 3-566 3-567 21-46c12-25 36-61 53-82l32-36 57-28 57-28h2550l57 28 57 28 32 36c17 21 41 57 53 82l21 46 3 416 3 416-56-53-56-53-62-30-62-31-55-5-55-6-32 20-32 20-17 48-17 49-38-41-38-41-44-22c-25-12-71-27-103-33l-58-11-45 7c-89 13-162 61-197 128l-15 28-22-16-21-15h-61l-60 1-24 13-25 14-28-39c-15-21-46-52-68-68l-40-29-66-12-66-13-64 6-65 6-44 20c-25 11-60 31-79 46l-33 25-24 45c-13 25-27 45-31 45-3 0-17-13-30-29-35-40-110-97-166-122l-47-22-80-1-81-1-27 18c-14 9-34 31-43 49l-16 31-5 58-6 58 12 63c11 54 21 94 57 221l5 17H432l-6-26z"/></g></g></svg>